<svg width="163" height="68" viewBox="0 0 163 68" fill="none" xmlns="http://www.w3.org/2000/svg">
<path d="M49.8595 22.856C49.8595 26.4827 48.9208 29.8107 47.0435 32.84C45.1662 35.8693 42.4355 38.344 38.8515 40.264C35.2675 42.184 31.0008 43.3147 26.0515 43.656L23.2995 59.08C22.2328 65.0107 19.3315 67.976 14.5955 67.976C11.9928 67.976 9.58217 67.208 7.3635 65.672C5.1875 64.136 3.43817 61.7893 2.1155 58.632C0.792834 55.4747 0.1315 51.592 0.1315 46.984C0.1315 38.3227 1.51817 30.984 4.2915 24.968C7.1075 18.9093 10.8622 14.3867 15.5555 11.4C20.2915 8.37067 25.4968 6.856 31.1715 6.856C35.1822 6.856 38.5742 7.56 41.3475 8.968C44.1635 10.376 46.2755 12.296 47.6835 14.728C49.1342 17.1173 49.8595 19.8267 49.8595 22.856ZM27.2035 37.064C35.9502 35.9547 40.3235 31.4107 40.3235 23.432C40.3235 20.616 39.3848 18.3333 37.5075 16.584C35.6728 14.792 32.8142 13.896 28.9315 13.896C24.5368 13.896 20.6968 15.2827 17.4115 18.056C14.1688 20.8293 11.6515 24.6907 9.8595 29.64C8.11017 34.5467 7.2355 40.1573 7.2355 46.472C7.2355 49.1173 7.4915 51.464 8.0035 53.512C8.55817 55.56 9.24083 57.16 10.0515 58.312C10.9048 59.4213 11.7155 59.976 12.4835 59.976C13.5502 59.976 14.3608 58.504 14.9155 55.56L17.0275 43.464C15.3635 43.208 14.6382 43.1013 14.8515 43.144C13.5715 42.9307 12.7395 42.5467 12.3555 41.992C11.9715 41.3947 11.7795 40.648 11.7795 39.752C11.7795 38.8133 12.0355 38.0667 12.5475 37.512C13.1022 36.9573 13.8488 36.68 14.7875 36.68C15.2142 36.68 15.5342 36.7013 15.7475 36.744C16.7715 36.9147 17.5608 37.0213 18.1155 37.064C18.6702 33.736 19.4595 29.2773 20.4835 23.688C20.7395 22.2373 21.3155 21.2133 22.2115 20.616C23.1502 19.976 24.2382 19.656 25.4755 19.656C26.8835 19.656 27.8862 19.9333 28.4835 20.488C29.1235 21 29.4435 21.832 29.4435 22.984C29.4435 23.6667 29.4008 24.2213 29.3155 24.648L27.2035 37.064ZM77.116 46.728C77.6707 46.728 78.0973 46.984 78.396 47.496C78.7373 48.008 78.908 48.712 78.908 49.608C78.908 51.3147 78.5027 52.6373 77.692 53.576C76.1133 55.496 73.8733 57.2667 70.972 58.888C68.1133 60.5093 65.0413 61.32 61.756 61.32C57.276 61.32 53.7987 60.104 51.324 57.672C48.8493 55.24 47.612 51.912 47.612 47.688C47.612 44.744 48.2307 42.0133 49.468 39.496C50.7053 36.936 52.412 34.9093 54.588 33.416C56.8067 31.9227 59.3027 31.176 62.076 31.176C64.5507 31.176 66.5347 31.9227 68.028 33.416C69.5213 34.8667 70.268 36.8507 70.268 39.368C70.268 42.312 69.2013 44.8507 67.068 46.984C64.9773 49.0747 61.4147 50.7387 56.38 51.976C57.4467 53.9387 59.4733 54.92 62.46 54.92C64.38 54.92 66.556 54.2587 68.988 52.936C71.4627 51.5707 73.596 49.8 75.388 47.624C75.9 47.0267 76.476 46.728 77.116 46.728ZM60.988 37.448C59.4093 37.448 58.0653 38.3653 56.956 40.2C55.8893 42.0347 55.356 44.2533 55.356 46.856V46.984C57.8733 46.3867 59.8573 45.4907 61.308 44.296C62.7587 43.1013 63.484 41.7147 63.484 40.136C63.484 39.3253 63.2493 38.6853 62.78 38.216C62.3533 37.704 61.756 37.448 60.988 37.448ZM97.953 46.728C98.5077 46.728 98.9343 46.984 99.233 47.496C99.5743 48.008 99.745 48.712 99.745 49.608C99.745 51.3147 99.3397 52.6373 98.529 53.576C96.6943 55.8373 94.689 57.6933 92.513 59.144C90.3797 60.5947 87.9477 61.32 85.217 61.32C81.4623 61.32 78.6677 59.6133 76.833 56.2C75.041 52.7867 74.145 48.3707 74.145 42.952C74.145 37.7467 74.8063 31.816 76.129 25.16C77.4943 18.504 79.4783 12.7867 82.081 8.008C84.7263 3.22933 87.8623 0.839996 91.489 0.839996C93.537 0.839996 95.137 1.8 96.289 3.72C97.4837 5.59733 98.081 8.30667 98.081 11.848C98.081 16.9253 96.673 22.8133 93.857 29.512C91.041 36.2107 87.2223 42.8453 82.401 49.416C82.6997 51.1653 83.1903 52.424 83.873 53.192C84.5557 53.9173 85.4517 54.28 86.561 54.28C88.3103 54.28 89.8463 53.7893 91.169 52.808C92.4917 51.784 94.177 50.056 96.225 47.624C96.737 47.0267 97.313 46.728 97.953 46.728ZM90.081 7.176C89.0997 7.176 87.9903 8.94667 86.753 12.488C85.5157 16.0293 84.4277 20.424 83.489 25.672C82.5503 30.92 82.0383 35.9547 81.953 40.776C84.9823 35.784 87.393 30.792 89.185 25.8C90.977 20.7653 91.873 16.1787 91.873 12.04C91.873 8.79733 91.2757 7.176 90.081 7.176ZM101.1 61.32C99.18 61.32 97.6013 60.4453 96.364 58.696C95.1693 56.904 94.572 54.6853 94.572 52.04C94.572 48.84 94.7853 45.9173 95.212 43.272C95.6387 40.584 96.3427 37.7467 97.324 34.76C97.7507 33.48 98.348 32.5627 99.116 32.008C99.884 31.4533 101.1 31.176 102.764 31.176C103.703 31.176 104.343 31.3253 104.684 31.624C105.068 31.9227 105.26 32.3707 105.26 32.968C105.26 33.3093 105.025 34.4613 104.556 36.424C104.129 38.0027 103.788 39.432 103.532 40.712C102.679 45.192 102.252 48.1787 102.252 49.672C102.252 50.568 102.359 51.208 102.572 51.592C102.785 51.9333 103.127 52.104 103.596 52.104C104.236 52.104 105.025 51.464 105.964 50.184C106.945 48.904 107.969 46.9627 109.036 44.36C110.145 41.7573 111.212 38.5573 112.236 34.76C112.577 33.48 113.089 32.5627 113.772 32.008C114.497 31.4533 115.564 31.176 116.972 31.176C117.953 31.176 118.636 31.304 119.02 31.56C119.404 31.7733 119.596 32.2 119.596 32.84C119.596 33.9067 119.063 36.8293 117.996 41.608C116.801 47.0693 116.204 50.44 116.204 51.72C116.204 52.5307 116.375 53.1707 116.716 53.64C117.057 54.0667 117.505 54.28 118.06 54.28C118.913 54.28 119.916 53.768 121.068 52.744C122.263 51.6773 123.841 49.9707 125.804 47.624C126.316 47.0267 126.892 46.728 127.532 46.728C128.087 46.728 128.513 46.984 128.812 47.496C129.153 48.008 129.324 48.712 129.324 49.608C129.324 51.3147 128.919 52.6373 128.108 53.576C126.273 55.8373 124.289 57.6933 122.156 59.144C120.065 60.5947 117.676 61.32 114.988 61.32C112.94 61.32 111.425 60.5307 110.444 58.952C109.505 57.3733 109.036 55.1547 109.036 52.296C108.311 55.1973 107.223 57.4373 105.772 59.016C104.321 60.552 102.764 61.32 101.1 61.32ZM136.359 61.32C132.177 61.32 128.913 60.1467 126.567 57.8C124.263 55.4107 123.111 52.2747 123.111 48.392C123.111 44.936 123.793 41.9067 125.159 39.304C126.524 36.7013 128.295 34.696 130.47 33.288C132.647 31.88 134.929 31.176 137.319 31.176C139.665 31.176 141.479 31.88 142.759 33.288C144.081 34.6533 144.743 36.424 144.743 38.6C144.743 40.392 144.337 41.9067 143.527 43.144C142.759 44.3813 141.735 45 140.455 45C139.644 45 138.983 44.808 138.471 44.424C138.001 44.04 137.767 43.5067 137.767 42.824C137.767 42.5253 137.809 42.184 137.895 41.8C137.98 41.416 138.044 41.1387 138.087 40.968C138.3 40.328 138.407 39.7307 138.407 39.176C138.407 38.6213 138.257 38.1947 137.958 37.896C137.703 37.5973 137.319 37.448 136.807 37.448C135.825 37.448 134.908 37.896 134.055 38.792C133.201 39.6453 132.519 40.8187 132.007 42.312C131.495 43.8053 131.239 45.448 131.239 47.24C131.239 52.1893 133.393 54.664 137.703 54.664C139.452 54.664 141.329 54.088 143.335 52.936C145.383 51.7413 147.388 49.9707 149.351 47.624C149.863 47.0267 150.439 46.728 151.079 46.728C151.633 46.728 152.06 46.984 152.359 47.496C152.7 48.008 152.871 48.712 152.871 49.608C152.871 51.2293 152.465 52.552 151.655 53.576C149.649 56.0507 147.239 57.9707 144.423 59.336C141.649 60.6587 138.961 61.32 136.359 61.32ZM156.529 26.952C154.737 26.952 153.393 26.5467 152.497 25.736C151.601 24.8827 151.153 23.7093 151.153 22.216C151.153 20.7227 151.729 19.4853 152.881 18.504C154.076 17.48 155.548 16.968 157.297 16.968C158.876 16.968 160.156 17.352 161.137 18.12C162.118 18.888 162.609 19.976 162.609 21.384C162.609 23.0907 162.054 24.456 160.945 25.48C159.836 26.4613 158.364 26.952 156.529 26.952ZM150.385 61.32C149.02 61.32 148.081 61.0427 147.569 60.488C147.057 59.9333 146.801 59.0587 146.801 57.864C146.801 57.5227 146.844 56.9253 146.929 56.072C147.612 48.264 148.742 41.16 150.321 34.76C150.662 33.4373 151.217 32.52 151.985 32.008C152.796 31.4533 154.076 31.176 155.825 31.176C157.66 31.176 158.577 31.9227 158.577 33.416C158.577 33.6293 158.534 34.0347 158.449 34.632C156.529 43.7627 155.377 51.4213 154.993 57.608C154.908 58.9733 154.502 59.9333 153.777 60.488C153.052 61.0427 151.921 61.32 150.385 61.32Z" fill="#BF8958"/>
</svg>
