<svg width="349" height="371" viewBox="0 0 349 371" fill="none" xmlns="http://www.w3.org/2000/svg">
<path d="M106.867 2.73331C87.5333 11.9333 84.7333 39.6666 101.133 60.4666L104.867 65.2667L102.733 73.1333C99.5333 85.1333 99.9333 106.6 103.667 118.333C107.133 129.133 110.6 136.467 115.267 142.733C117.133 145.133 118.333 147.4 117.933 147.8C117.667 148.2 113.533 148.733 108.867 149.133C76.3333 151.933 44.7333 161.933 29.4 174.467C18.0666 183.8 14.6 194.6 19.6666 205C23.2666 212.333 30.0666 217.267 38.3333 218.467C49.2667 219.933 89.1333 213.133 104.867 207.133L111.667 204.6V209C111.667 219.4 102.333 241.8 92.8666 254.733C88.4666 260.467 87.8 262.067 89 264.333C91.2666 268.6 92.8666 279.667 91.8 283.8C90.8666 287.267 90.7333 286.867 90.0667 280.333C88.8667 269.267 85.5333 263.667 76.7333 257.667C65.5333 250.2 57.1333 247.667 43.6666 247.667C34.3333 247.8 31 248.333 24.8666 251.133C-5.53336 265.267 -8.20002 306.2 19.5333 333.667C33.9333 347.8 50.7333 354.733 67 353.267C75.2667 352.467 129.933 335.133 135.267 331.667C140.333 328.333 147.533 328.067 171.4 330.2C184.067 331.4 199.133 332.333 204.867 332.333H215.133L222.867 343.667C236.467 363.667 247.533 371 263.8 371C279.4 371 294.733 362.067 304.733 347C312.6 335.4 315.8 323.933 315.8 308.867C315.667 290.333 310.733 277.8 299.533 267.8C292.467 261.4 286.733 259 278.333 259C271.267 259 253.533 264.2 248.467 267.667C244.333 270.733 242.867 270.067 246.733 267C253.133 261.933 264.6 257.667 275.8 256.067C281.933 255.267 287.133 254.467 287.267 254.333C287.4 254.333 285.533 248.2 283.133 240.867C280.733 233.667 278.333 225.933 277.8 223.8C276.867 220.2 277.133 220.067 280.2 220.867C287.133 222.6 314.733 227 318.6 227C341.533 227 355.133 202.2 344.2 180.6C336.867 166.467 330.067 164.2 278.067 159C253.533 156.467 250.067 156.467 247.4 158.2C242.467 161.4 231.533 165.267 225 166.2C219.4 167 219.667 166.733 227.933 163.8C241.8 158.867 248.467 154.333 255.133 145.267C266.6 129.8 271.933 113.667 271.8 95V83.6667L278.2 80.0667C289.933 73.6666 295.533 63.4 295.667 48.2C295.8 28.2 280.867 11.8 260.867 10.0667C252.067 9.26665 243.133 11.8 236.333 17L231.933 20.3333L223.133 16.3333C209.4 10.0666 198.467 8.06664 182.333 8.59998C171.933 8.99998 165.8 10.0666 158.733 12.4666L149 15.8L145.4 11.9333C135.4 1.39999 118.333 -2.60003 106.867 2.73331Z" fill="#2F6673"/>
</svg>
